<?xml version="1.0" encoding="UTF-8"?>
<svg xmlns="http://www.w3.org/2000/svg" xmlns:xlink="http://www.w3.org/1999/xlink" viewBox="0 0 40 40" width="40px" height="40px">
<g id="surface1179764">
<path style=" stroke:none;fill-rule:nonzero;fill:rgb(18.039216%,80.000001%,44.313726%);fill-opacity:1;" d="M 30 4.175781 C 28.503906 4.175781 27.007812 4.742188 25.875 5.875 L 7.429688 24.320312 C 7.078125 24.667969 6.824219 25.105469 6.6875 25.582031 L 4.214844 34.238281 C 4.089844 34.675781 4.214844 35.144531 4.535156 35.464844 C 4.855469 35.785156 5.324219 35.910156 5.761719 35.785156 L 14.417969 33.3125 C 14.417969 33.3125 14.421875 33.3125 14.421875 33.308594 C 14.894531 33.175781 15.328125 32.921875 15.679688 32.570312 L 34.125 14.125 C 36.390625 11.855469 36.390625 8.144531 34.125 5.875 C 32.992188 4.742188 31.496094 4.175781 30 4.175781 Z M 30 6.660156 C 30.851562 6.660156 31.699219 6.988281 32.355469 7.644531 C 33.667969 8.957031 33.667969 11.042969 32.355469 12.355469 L 30.742188 13.972656 L 26.027344 9.257812 L 27.644531 7.644531 C 28.296875 6.988281 29.148438 6.660156 30 6.660156 Z M 24.257812 11.027344 L 28.972656 15.742188 L 13.910156 30.800781 C 13.863281 30.851562 13.800781 30.886719 13.730469 30.90625 L 7.234375 32.761719 L 9.089844 26.269531 C 9.089844 26.265625 9.089844 26.265625 9.089844 26.265625 C 9.109375 26.199219 9.144531 26.140625 9.199219 26.085938 Z M 24.257812 11.027344 "/>
</g>
</svg>
