<?xml version="1.0" encoding="UTF-8"?>
<svg xmlns="http://www.w3.org/2000/svg" xmlns:xlink="http://www.w3.org/1999/xlink" viewBox="0 0 40 40" width="40px" height="40px">
<g id="surface1197473">
<path style=" stroke:none;fill-rule:nonzero;fill:rgb(18.039216%,80.000001%,44.313726%);fill-opacity:1;" d="M 30.4375 4 C 29.753906 4 29.074219 4.261719 28.550781 4.78125 L 25.332031 8 L 32 14.667969 L 35.21875 11.449219 C 36.261719 10.40625 36.261719 8.71875 35.21875 7.675781 L 32.324219 4.78125 C 31.800781 4.261719 31.121094 4 30.4375 4 Z M 22.667969 10.667969 L 7.011719 26.320312 C 7.011719 26.320312 8.238281 26.210938 8.691406 26.667969 C 9.148438 27.121094 8.773438 30.105469 9.332031 30.667969 C 9.894531 31.226562 12.859375 30.832031 13.285156 31.257812 C 13.710938 31.683594 13.679688 32.988281 13.679688 32.988281 L 29.332031 17.332031 Z M 5.332031 30.667969 L 4.074219 34.230469 C 4.027344 34.371094 4 34.519531 4 34.667969 C 4 35.402344 4.597656 36 5.332031 36 C 5.480469 36 5.628906 35.972656 5.769531 35.925781 C 5.773438 35.921875 5.78125 35.921875 5.785156 35.917969 L 5.816406 35.910156 C 5.820312 35.90625 5.824219 35.90625 5.824219 35.902344 L 9.332031 34.667969 Z M 5.332031 30.667969 "/>
</g>
</svg>
